<svg width="238" height="59" viewBox="0 0 238 59" fill="none" xmlns="http://www.w3.org/2000/svg">
<path fill-rule="evenodd" clip-rule="evenodd" d="M104.112 37.4982L104.132 49.5054C104.132 49.5054 105.357 58.2134 98.5807 58.2134C93.1446 58.2134 89.743 49.708 86.2798 46.2637H7.55906C3.40157 46.2637 0 42.8621 0 38.7046V7.55906C0 3.40157 3.40157 0 7.55906 0H96.5341C100.692 0 104.093 3.40157 104.093 7.55906V37.5526L104.112 37.4982Z" fill="url(#paint0_linear_1_38)"/>
<path d="M27.0246 32.4018C25.4366 32.4018 23.9634 32.1531 22.6051 31.6556C21.2658 31.1391 20.0987 30.412 19.1039 29.4745C18.1281 28.5371 17.3628 27.437 16.808 26.1742C16.2532 24.8924 15.9757 23.4862 15.9757 21.9556C15.9757 20.425 16.2532 19.0284 16.808 17.7656C17.3628 16.4838 18.1281 15.3741 19.1039 14.4366C20.0987 13.4991 21.2658 12.7817 22.6051 12.2842C23.9634 11.7677 25.4366 11.5094 27.0246 11.5094C28.8804 11.5094 30.5354 11.8346 31.9894 12.4851C33.4626 13.1356 34.6871 14.0731 35.6628 15.2976L32.0468 18.5692C31.3963 17.8039 30.6789 17.2204 29.8944 16.8186C29.1291 16.4168 28.2682 16.2159 27.3116 16.2159C26.4889 16.2159 25.7332 16.3498 25.0444 16.6177C24.3557 16.8855 23.7626 17.2778 23.2651 17.7943C22.7868 18.2918 22.4042 18.8944 22.1172 19.6023C21.8493 20.3102 21.7154 21.0946 21.7154 21.9556C21.7154 22.8165 21.8493 23.601 22.1172 24.3088C22.4042 25.0167 22.7868 25.629 23.2651 26.1455C23.7626 26.643 24.3557 27.0256 25.0444 27.2935C25.7332 27.5613 26.4889 27.6953 27.3116 27.6953C28.2682 27.6953 29.1291 27.4944 29.8944 27.0926C30.6789 26.6908 31.3963 26.1073 32.0468 25.342L35.6628 28.6136C34.6871 29.8189 33.4626 30.7564 31.9894 31.426C30.5354 32.0765 28.8804 32.4018 27.0246 32.4018ZM38.1963 32V11.9112H43.8786V32H38.1963ZM47.9212 32V11.9112H52.5991L63.6766 25.2846H61.4669V11.9112H67.0343V32H62.3565L51.2789 18.6266H53.4887V32H47.9212ZM76.2656 19.6884H85.5925V23.9358H76.2656V19.6884ZM76.6673 27.6092H87.1709V32H71.0425V11.9112H86.7978V16.302H76.6673V27.6092Z" fill="white"/>
<path d="M114.495 32.3831V12.2977H123.677C125.513 12.2977 127.091 12.5942 128.411 13.1872C129.75 13.7802 130.783 14.641 131.51 15.7696C132.237 16.8791 132.6 18.199 132.6 19.7293C132.6 21.2405 132.237 22.5508 131.51 23.6603C130.783 24.7507 129.75 25.5923 128.411 26.1853C127.091 26.7592 125.513 27.0461 123.677 27.0461H117.651L120.176 24.6646V32.3831H114.495ZM126.919 32.3831L121.926 25.0663H127.981L133.002 32.3831H126.919ZM120.176 25.2672L117.651 22.656H123.332C124.518 22.656 125.398 22.3978 125.972 21.8813C126.565 21.3648 126.862 20.6475 126.862 19.7293C126.862 18.792 126.565 18.0651 125.972 17.5486C125.398 17.0321 124.518 16.7739 123.332 16.7739H117.651L120.176 14.1628V25.2672ZM140.957 20.0736H150.282V24.3203H140.957V20.0736ZM141.359 27.993H151.86V32.3831H135.735V12.2977H151.487V16.6878H141.359V27.993ZM160.902 32.3831L152.323 12.2977H158.463L165.694 29.6859H162.078L169.481 12.2977H175.105L166.497 32.3831H160.902ZM176.281 32.3831V12.2977H181.962V32.3831H176.281ZM191.226 20.0736H200.552V24.3203H191.226V20.0736ZM191.628 27.993H202.13V32.3831H186.004V12.2977H201.757V16.6878H191.628V27.993ZM209.966 32.3831L203.453 12.2977H209.306L214.787 29.6859H211.831L217.599 12.2977H222.821L228.273 29.6859H225.432L231.085 12.2977H236.508L229.994 32.3831H223.911L219.263 17.606H220.899L216.049 32.3831H209.966Z" fill="white"/>
<defs>
<linearGradient id="paint0_linear_1_38" x1="52.1091" y1="0" x2="52.1091" y2="58.2134" gradientUnits="userSpaceOnUse">
<stop stop-color="#EC8164"/>
<stop offset="1" stop-color="#F14C63"/>
</linearGradient>
</defs>
</svg>
