<svg width="59" height="56" viewBox="0 0 59 56" fill="none" xmlns="http://www.w3.org/2000/svg">
<path fill-rule="evenodd" clip-rule="evenodd" d="M57.9935 48.8011C57.9935 48.8011 59.0427 56 53.2406 56C48.9538 56 46.1441 50.035 43.4106 46.8679H7.93108C3.56879 46.8679 0 43.4222 0 39.21V7.6579C0 3.44573 3.56879 0 7.93108 0H50.3184C54.6807 0 58.2495 3.44573 58.2495 7.6579V39.21C58.2495 42.3021 57.988 45.5766 57.9935 48.8011Z" fill="url(#paint0_linear_281_37)"/>
<path d="M20.032 32.9432C18.736 32.9432 17.528 32.7352 16.408 32.3192C15.304 31.8872 14.344 31.2792 13.528 30.4952C12.712 29.7112 12.072 28.7912 11.608 27.7352C11.16 26.6792 10.936 25.5192 10.936 24.2552C10.936 22.9912 11.16 21.8312 11.608 20.7752C12.072 19.7192 12.712 18.7992 13.528 18.0152C14.36 17.2312 15.328 16.6312 16.432 16.2152C17.536 15.7832 18.744 15.5672 20.056 15.5672C21.512 15.5672 22.824 15.8232 23.992 16.3352C25.176 16.8312 26.168 17.5672 26.968 18.5432L24.472 20.8472C23.896 20.1912 23.256 19.7032 22.552 19.3832C21.848 19.0472 21.08 18.8792 20.248 18.8792C19.464 18.8792 18.744 19.0072 18.088 19.2632C17.432 19.5192 16.864 19.8872 16.384 20.3672C15.904 20.8472 15.528 21.4152 15.256 22.0712C15 22.7272 14.872 23.4552 14.872 24.2552C14.872 25.0552 15 25.7832 15.256 26.4392C15.528 27.0952 15.904 27.6632 16.384 28.1432C16.864 28.6232 17.432 28.9912 18.088 29.2472C18.744 29.5032 19.464 29.6312 20.248 29.6312C21.08 29.6312 21.848 29.4712 22.552 29.1512C23.256 28.8152 23.896 28.3112 24.472 27.6392L26.968 29.9432C26.168 30.9192 25.176 31.6632 23.992 32.1752C22.824 32.6872 21.504 32.9432 20.032 32.9432Z" fill="#FEFEFE"/>
<path d="M30.6783 32.6552V15.8552H37.9503C39.4543 15.8552 40.7503 16.1032 41.8383 16.5992C42.9263 17.0792 43.7663 17.7752 44.3583 18.6872C44.9503 19.5992 45.2463 20.6872 45.2463 21.9512C45.2463 23.1992 44.9503 24.2792 44.3583 25.1912C43.7663 26.0872 42.9263 26.7752 41.8383 27.2552C40.7503 27.7352 39.4543 27.9752 37.9503 27.9752H32.8383L34.5663 26.2712V32.6552H30.6783ZM41.3583 32.6552L37.1583 26.5592H41.3103L45.5583 32.6552H41.3583ZM34.5663 26.7032L32.8383 24.8792H37.7343C38.9343 24.8792 39.8303 24.6232 40.4223 24.1112C41.0143 23.5832 41.3103 22.8632 41.3103 21.9512C41.3103 21.0232 41.0143 20.3032 40.4223 19.7912C39.8303 19.2792 38.9343 19.0232 37.7343 19.0232H32.8383L34.5663 17.1752V26.7032Z" fill="#FEFEFE"/>
<defs>
<linearGradient id="paint0_linear_281_37" x1="29.1247" y1="0" x2="29.1247" y2="56" gradientUnits="userSpaceOnUse">
<stop stop-color="#EC8164"/>
<stop offset="1" stop-color="#F14C63"/>
</linearGradient>
</defs>
</svg>
